<svg xmlns="http://www.w3.org/2000/svg" id="Group_40202" data-name="Group 40202" width="276.777" height="45.176" viewBox="0 0 276.777 45.176"><g id="Group_40199" data-name="Group 40199" transform="translate(166.578 7.483)"><path id="Subtraction_5" data-name="Subtraction 5" d="M1944.521,4238.718a15.66,15.66,0,1,1,16.665-15.628v.072c0-.494-.027-.991-.076-1.479a15.487,15.487,0,0,0-1.416-5.135,15.694,15.694,0,0,0-14.165-8.968,2.886,2.886,0,0,0-.812,5.656,9.882,9.882,0,1,0,10.7,9.938v.062a9.888,9.888,0,0,1-9.885,9.887,2.886,2.886,0,0,0-1.007,5.591Zm-32.938-4.329h0a2.022,2.022,0,0,0-2.022-2.009H1907.4a2.01,2.01,0,0,0-2.022,1.946v-24.844a1.878,1.878,0,0,1,1.875-1.876h2.444a1.878,1.878,0,0,1,1.875,1.876Zm12.818-13.246h0a2.022,2.022,0,0,0-2.023-2.006h-2.157a2.015,2.015,0,0,0-2.016,1.92v-11.574a1.878,1.878,0,0,1,1.875-1.876h2.443a1.878,1.878,0,0,1,1.875,1.876Z" transform="translate(-1850.989 -4207.43)" opacity="0.6"></path><path id="Path_43851" data-name="Path 43851" d="M1805.557,4214.478v-6.194H1787.7a1.875,1.875,0,0,0-1.875,1.876v27.217a1.875,1.875,0,0,0,1.875,1.875h2.443a1.875,1.875,0,0,0,1.875-1.875v-10.513h13.535v-6.194h-13.535v-6.194Z" transform="translate(-1776.888 -4207.959)"></path><path id="Path_43852" data-name="Path 43852" d="M1943.281,4238.207h-2.157a2.022,2.022,0,0,0-2.022,2.022h0v15.692a1.878,1.878,0,0,0,1.878,1.878h2.438a1.878,1.878,0,0,0,1.878-1.878h0v-15.7a2.022,2.022,0,0,0-2.022-2.022h0Z" transform="translate(-1871.889 -4226.503)"></path><path id="Path_43853" data-name="Path 43853" d="M1909.565,4273.054h-2.157a2.022,2.022,0,0,0-2.022,2.022h0v2.474a1.878,1.878,0,0,0,1.878,1.878h2.438a1.878,1.878,0,0,0,1.878-1.878h0v-2.474a2.022,2.022,0,0,0-2.022-2.022h.007Z" transform="translate(-1850.991 -4248.104)"></path><path id="Path_43854" data-name="Path 43854" d="M2021.759,4221.928a15.545,15.545,0,0,0-4.508-9.515h0a15.568,15.568,0,0,0-11.07-4.584,2.887,2.887,0,0,0-.117,5.772h.117a9.886,9.886,0,0,1,0,19.771,2.887,2.887,0,0,0-.117,5.772h.117a15.654,15.654,0,0,0,15.658-15.65v-.01q0-.784-.076-1.555Z" transform="translate(-1911.64 -4207.677)"></path><path id="Path_43855" data-name="Path 43855" d="M1855.572,4208.283h-17.853v6.194h17.853a1.875,1.875,0,0,0,1.875-1.875v-2.443a1.876,1.876,0,0,0-1.875-1.876Z" transform="translate(-1809.051 -4207.959)" opacity="0.6"></path><path id="Path_43856" data-name="Path 43856" d="M1855.572,4253.256h-11.656v-6.191h6.763a1.876,1.876,0,0,0,1.876-1.876v-2.442a1.876,1.876,0,0,0-1.876-1.876h-12.96v16.706h0a1.874,1.874,0,0,0,1.873,1.875h15.98a1.876,1.876,0,0,0,1.875-1.875v-2.443a1.876,1.876,0,0,0-1.875-1.875Z" transform="translate(-1809.051 -4228.156)" opacity="0.6"></path><path id="Path_45107" data-name="Path 45107" d="M1763.1,4239.232a.785.785,0,0,1-.786-.785v-26.392a.786.786,0,0,1,1.571,0v26.392A.785.785,0,0,1,1763.1,4239.232Z" transform="translate(-1762.314 -4209.811)"></path></g><g id="Sc0ful"><g id="Group_40201" data-name="Group 40201"><path id="Path_45108" data-name="Path 45108" d="M1588.784,4252.047c-.4,2.118-.773,4.157-1.172,6.191-.382,1.943-.046,1.653-1.99,1.674-1.112.012-2.224-.012-3.336-.024a1.645,1.645,0,0,1-.34-.125c.157-.905.314-1.843.484-2.778q2.09-11.487,4.173-22.974c.1-.568.281-.855.923-.832,1.275.045,2.552.013,3.951.013-.077.917-.143,1.7-.209,2.478l.33.272a3.239,3.239,0,0,1,.428-.792,6.643,6.643,0,0,1,5.5-2.222,4.835,4.835,0,0,1,4.371,3.345c1.914,5.007-.7,12.442-5.3,15.164A8.87,8.87,0,0,1,1588.784,4252.047Zm8.035-11.5c0-.242.013-.486,0-.728a2.357,2.357,0,0,0-1.312-2.3,2.258,2.258,0,0,0-2.656.656,6.88,6.88,0,0,0-1.642,2.475c-.635,2.188-1.044,4.445-1.47,6.688a1.185,1.185,0,0,0,.565.916c1.489.819,3.1.338,4.35-1.3A11.111,11.111,0,0,0,1596.819,4240.551Z" transform="translate(-1483.943 -4215.735)"></path><path id="Path_45109" data-name="Path 45109" d="M1484.8,4239.3c.67-3.519,1.3-6.825,1.928-10.129,1.041-5.461,2.074-10.924,3.145-16.379.064-.325.414-.834.652-.846,1.586-.075,3.178-.04,4.912-.04l-2.024,10.662a8.54,8.54,0,0,1,.844-.717,14.478,14.478,0,0,1,2.758-1.619c4-1.363,6.959,1.016,6.5,5.211-.227,2.068-.633,4.119-1,6.17-.4,2.258-.87,4.5-1.258,6.764-.125.728-.435.972-1.171.943-1.418-.056-2.841-.016-4.427-.016.261-1.433.5-2.746.74-4.058q.712-3.9,1.422-7.793a5.084,5.084,0,0,0,.085-.829c.013-.848.021-1.739-.87-2.186a2.183,2.183,0,0,0-2.5.533,7.737,7.737,0,0,0-2.412,4.518c-.609,2.889-1.161,5.792-1.672,8.7-.147.837-.448,1.18-1.339,1.131C1487.733,4239.244,1486.345,4239.3,1484.8,4239.3Z" transform="translate(-1423.731 -4202.717)"></path><path id="Path_45110" data-name="Path 45110" d="M1691.387,4257.15c1.136-.643,2.184-1.179,3.167-1.815a9.719,9.719,0,0,0,1.559-1.374,3.791,3.791,0,0,0,1.125-3.755c-1.052-5.069-1.924-10.175-2.864-15.267-.049-.268-.077-.538-.129-.906h5.624c.219,2.082.435,4.146.652,6.211s.436,4.144.687,6.52c.22-.495.335-.72.425-.957,1.4-3.7,2.794-7.413,4.221-11.108.115-.3.466-.706.721-.717,1.655-.064,3.313-.033,5.077-.033a4,4,0,0,1-.159.612c-2.616,5.49-5.189,11-7.88,16.455a27.015,27.015,0,0,1-5.145,7.3,12.291,12.291,0,0,1-5.615,3.236Z" transform="translate(-1551.775 -4216.38)"></path><path id="Path_45111" data-name="Path 45111" d="M1545.324,4252.685c-4.553-.077-7.314-2.62-7.55-6.958a12.606,12.606,0,0,1,3.552-9.812,9.649,9.649,0,0,1,8.649-2.915,6.544,6.544,0,0,1,5.564,5.1,12.939,12.939,0,0,1-4.692,12.8A9.554,9.554,0,0,1,1545.324,4252.685Zm-2-7.886h0a8.657,8.657,0,0,0,0,.937c.132,1.2.484,2.271,1.784,2.678a2.729,2.729,0,0,0,3.144-1.306,11.192,11.192,0,0,0,1.913-7.828,2.41,2.41,0,0,0-4.194-1.508,4.651,4.651,0,0,0-1.3,1.728A17.58,17.58,0,0,0,1543.319,4244.8Z" transform="translate(-1456.551 -4215.725)"></path><path id="Path_45112" data-name="Path 45112" d="M1677.872,4211.4l-1,4.029c-1.288-.114-2.56-.447-3.6.563a5.489,5.489,0,0,0-1.451,3.534h3.651c-.232,1.322-.413,2.479-.658,3.621-.041.192-.345.35-.556.475-.1.062-.272.009-.411.018-.921.056-2.1-.206-2.689.267-.546.439-.483,1.658-.653,2.541-.714,3.719-1.433,7.437-2.1,11.163-.138.767-.442,1.039-1.224,1-1.412-.06-2.829-.017-4.393-.017.953-5.047,1.876-9.939,2.822-14.952h-2.458c.25-1.332.433-2.55.75-3.733.054-.2.7-.377,1.052-.335,1.1.131,1.558-.24,1.772-1.38a11.719,11.719,0,0,1,1.276-3.5A7.925,7.925,0,0,1,1677.872,4211.4Z" transform="translate(-1534.052 -4202.022)"></path><path id="Path_45113" data-name="Path 45113" d="M1447.637,4247.783c1.646.313,3.09.661,4.555.839a1.862,1.862,0,0,0,2.165-1.257,1.972,1.972,0,0,0-1-2.311c-.715-.491-1.468-.928-2.176-1.429-3.912-2.769-2.748-7.231.046-9.127,2.9-1.965,6.075-1.928,9.3-.951a.946.946,0,0,1,.471.8c-.28,1.068-.669,2.106-1.02,3.157a28.145,28.145,0,0,0-2.805-.528,4.649,4.649,0,0,0-1.939.21,1.532,1.532,0,0,0-.47,2.736,26.2,26.2,0,0,0,2.256,1.491c1.9,1.267,3.245,2.848,2.974,5.324a5.917,5.917,0,0,1-3.988,5.153,12.015,12.015,0,0,1-8.759-.092c-.721-.264-.87-.641-.578-1.34C1447.056,4249.533,1447.354,4248.576,1447.637,4247.783Z" transform="translate(-1400.011 -4215.729)"></path><path id="Path_45114" data-name="Path 45114" d="M1636.319,4252.964l1.462-7.629c.674-3.517,1.366-7.031,2.006-10.553.119-.653.382-.86,1.022-.844,1.456.037,2.914.012,4.5.012-.032.387-.03.684-.085.969-1.09,5.667-2.2,11.33-3.265,17-.151.8-.454,1.1-1.288,1.063C1639.261,4252.914,1637.847,4252.964,1636.319,4252.964Z" transform="translate(-1517.644 -4216.376)"></path><path id="Path_45115" data-name="Path 45115" d="M1653.808,4215.424a3.029,3.029,0,0,1-3.212,3.07,2.509,2.509,0,0,1-2.587-2.751,3.078,3.078,0,0,1,3.057-3.035A2.56,2.56,0,0,1,1653.808,4215.424Z" transform="translate(-1524.888 -4203.218)"></path><g id="Group_40200" data-name="Group 40200"><path id="Subtraction_4" data-name="Subtraction 4" d="M1351.029,4231.329h0l-26.855-4.643.06-.463.007-.058c.944-7.312,3.145-24.4,3.2-25.112.157-1.161.184-1.191,1.412-1.562.049,0,1.135-.339,2.776-.851l.155-.048.627-.2.614-.19a17.541,17.541,0,0,1,2.385-6.156c1.732-2.709,3.838-4.236,5.929-4.3h.127a3.478,3.478,0,0,1,2.6,1.1.314.314,0,0,1,.1.09c.019.023.039.046.06.067a1.264,1.264,0,0,1,.345-.031,3.874,3.874,0,0,1,2.231.69,5.371,5.371,0,0,1,1.691,2.008,9.46,9.46,0,0,1,.628,1.538l1.31-.414h.007a1.283,1.283,0,0,1,.389-.056,1.08,1.08,0,0,1,.26.029h-.053Zm-18.793-13.678h0l-.91,3.858a7.009,7.009,0,0,0,1.571,1.152,9.274,9.274,0,0,0,4.52,1.151c.181,0,.36,0,.529-.014a5.946,5.946,0,0,0,4.327-2.141,7.238,7.238,0,0,0,1.451-5.106c-.209-3.209-2.448-4.649-4.247-5.807-1.139-.732-2.123-1.366-2.184-2.257a2.113,2.113,0,0,1,.33-1.2,2.819,2.819,0,0,1,2.3-1.025c.144-.009.293-.016.441-.016a7.683,7.683,0,0,1,2.854.581l1.348-5.048a6.376,6.376,0,0,0-2.7-.465c-.24,0-.5.009-.752.026a9.046,9.046,0,0,0-6.46,2.891,7.851,7.851,0,0,0-1.851,5.67c.177,2.734,1.774,3.867,3.184,4.868,1.108.786,2.066,1.465,2.149,2.756a1.7,1.7,0,0,1-.41,1.225,1.681,1.681,0,0,1-1.221.563c-.062,0-.127.006-.193.006a8.639,8.639,0,0,1-4.074-1.668Zm9.162-28.489h0c-1.019.03-2.6.584-4.349,3.052a16.373,16.373,0,0,0-2.491,5.545l.54-.165.313-.1.025-.013h.017c.841-.257,1.8-.549,2.778-.856a12.14,12.14,0,0,1,2.791-5.836,5.552,5.552,0,0,1,1.631-1.286A2.038,2.038,0,0,0,1341.4,4189.162Zm2.164,1.442h0a4.556,4.556,0,0,0-1.506,1.1,10.733,10.733,0,0,0-2.255,4.394l.12-.038h.011c1.462-.447,2.972-.91,4.356-1.34a9.362,9.362,0,0,0-.721-4.11Zm1.506-.12a11.55,11.55,0,0,1,.623,3.824c.766-.255,1.463-.481,2.07-.659-.241-.863-1-2.9-2.691-3.169Z" transform="translate(-1324.174 -4187.749)"></path><path id="Path_43859" data-name="Path 43859" d="M1401.274,4203.969c-.158,0-3.262-.062-3.262-.062s-2.6-2.512-2.856-2.794a.5.5,0,0,0-.345-.156v38.559l11.64-2.885s-4.737-32.1-4.769-32.315A.455.455,0,0,0,1401.274,4203.969Z" transform="translate(-1367.955 -4195.935)" opacity="0.6"></path></g></g></g></svg>